<svg width="60" height="60" viewBox="0 0 60 60" fill="none" xmlns="http://www.w3.org/2000/svg">
<path d="M55.1629 10.9113V27.6742C55.1629 42.9402 44.7959 56.2515 29.9877 60C15.2042 56.2639 4.83716 42.9402 4.83716 27.6742V10.9113C16.4784 9.6 23.0722 5.17113 30 0C36.9279 5.17113 43.5217 9.6 55.1629 10.9113Z" fill="#FFD15C"/>
<path d="M29.9999 53.3815C18.8535 49.8433 11.1958 39.501 11.1958 27.6742V16.3175C19.0267 14.6103 24.7793 11.4557 29.9999 7.85568C35.3319 11.5547 40.9731 14.6474 48.804 16.3299V27.6866C48.804 39.501 41.1463 49.8433 29.9999 53.3815Z" fill="#F8B64C"/>
<path d="M25.831 40.2557L19.6331 34.0577L22.7753 30.9031L25.831 33.9464L37.2248 22.5649L40.3671 25.7072L25.831 40.2557Z" fill="white"/>
</svg>
