<svg width="60" height="60" viewBox="0 0 60 60" fill="none" xmlns="http://www.w3.org/2000/svg">
<g clip-path="url(#clip0_16_1103)">
<path d="M39.8663 22.9221C39.4994 24.3304 38.6548 25.5954 37.4526 26.4739H29.8667C28.2257 25.2748 27.2471 23.3565 27.2471 21.3351C27.2471 21.1497 27.2568 20.9665 27.2725 20.7851C26.5884 19.7188 25.7647 18.9059 25.0043 18.3097C23.1568 16.8612 21.319 16.3585 21.2417 16.3375C21.1836 16.3219 21.1245 16.3145 21.0658 16.3145C20.9186 16.3145 20.7734 16.3624 20.654 16.4533C20.4869 16.5806 20.3888 16.7782 20.3888 16.9878V24.1718C15.3291 26.4618 11.7077 31.3438 11.2373 37.112H7.25817C6.88587 37.112 6.5813 37.4149 6.5813 37.785V46.8046C6.5813 47.1749 6.88587 47.4776 7.25817 47.4776H13.0226C14.8714 50.9254 17.9831 53.6002 21.7425 54.8966V58.3594H29.1651L29.5502 55.7557H37.7161C37.9116 55.7557 38.1059 55.751 38.2996 55.7439L38.6863 58.3593H46.1089V53.3396C50.5019 50.5716 53.4188 45.6953 53.4188 40.1405V38.3905C53.4186 30.4924 47.5211 23.9647 39.8663 22.9221Z" fill="#FE99A0"/>
<path d="M7.25817 47.4773H13.0226C14.8714 50.9251 17.9831 53.5999 21.7425 54.8964V58.3594H24.6722V52.5525C20.9127 51.256 17.8012 48.5812 15.9523 45.1335H10.1879C9.81556 45.1335 9.51099 44.8308 9.51099 44.4605V37.1116H7.25817C6.88587 37.1116 6.5813 37.4146 6.5813 37.7846V46.8042C6.5813 47.1746 6.88587 47.4773 7.25817 47.4773Z" fill="#FD8087"/>
<path d="M16.4795 41.1571C15.9941 41.1571 15.6006 40.7637 15.6006 40.2782V35.6343C15.6006 35.1488 15.9941 34.7554 16.4795 34.7554C16.9649 34.7554 17.3584 35.1488 17.3584 35.6343V40.2782C17.3584 40.7637 16.9649 41.1571 16.4795 41.1571Z" fill="#444444"/>
<path d="M53.4186 60H6.5813C6.09591 60 5.70239 59.6066 5.70239 59.1211C5.70239 58.6356 6.09591 58.2422 6.5813 58.2422H53.4187C53.9041 58.2422 54.2976 58.6356 54.2976 59.1211C54.2976 59.6066 53.904 60 53.4186 60Z" fill="#FB8801"/>
<path d="M30.4954 15.7926V13.6649C30.4954 13.1793 30.1018 12.7859 29.6165 12.7859C29.1311 12.7859 28.7375 13.1793 28.7375 13.6649V17.2537C29.2293 16.6681 29.8249 16.1726 30.4954 15.7926Z" fill="#FB8801"/>
<path d="M38.5818 17.2535V14.2689C38.5818 13.7834 38.1883 13.39 37.7029 13.39C37.2175 13.39 36.824 13.7834 36.824 14.2689V15.7925C37.4944 16.1726 38.0901 16.6682 38.5818 17.2535Z" fill="#FB8801"/>
<path d="M37.7026 11.6742C37.4718 11.6742 37.2456 11.5803 37.0815 11.4164C36.9175 11.2535 36.8237 11.0273 36.8237 10.7953C36.8237 10.5643 36.9175 10.3371 37.0815 10.1741C37.2456 10.0101 37.4718 9.91638 37.7026 9.91638C37.9347 9.91638 38.1608 10.0101 38.3249 10.1741C38.4878 10.3371 38.5815 10.5643 38.5815 10.7953C38.5815 11.0272 38.4878 11.2535 38.3249 11.4164C38.1608 11.5803 37.9347 11.6742 37.7026 11.6742Z" fill="#FB8801"/>
<path d="M33.6596 14.9588C33.9842 14.9588 34.303 14.9834 34.6147 15.0298V11.0859C34.6147 10.6004 34.2212 10.207 33.7358 10.207C33.2504 10.207 32.8569 10.6004 32.8569 11.0859V15.0105C33.1201 14.9777 33.3877 14.9588 33.6596 14.9588Z" fill="#FB8801"/>
<path d="M33.7358 8.35193C33.505 8.35193 33.2776 8.25818 33.1147 8.09412C32.9507 7.93123 32.8569 7.704 32.8569 7.47302C32.8569 7.24216 32.9507 7.01482 33.1147 6.85193C33.2776 6.68787 33.5038 6.59412 33.7358 6.59412C33.9667 6.59412 34.194 6.68787 34.3569 6.85193C34.521 7.01482 34.6147 7.24216 34.6147 7.47302C34.6147 7.704 34.521 7.93123 34.3569 8.09412C34.194 8.25818 33.9667 8.35193 33.7358 8.35193Z" fill="#FB8801"/>
<path d="M29.8287 26.5909H37.4908C39.1255 25.4112 40.1896 23.4974 40.1896 21.3349C40.1896 17.7487 37.266 14.8416 33.6597 14.8416C30.0534 14.8416 27.1299 17.7489 27.1299 21.3349C27.1299 23.4974 28.1939 25.4112 29.8287 26.5909Z" fill="#FFDC48"/>
<path d="M36.7676 21.335C36.7676 23.0419 35.3761 24.4253 33.6597 24.4253C31.9434 24.4253 30.552 23.0419 30.552 21.335C30.552 19.6283 31.9434 18.2447 33.6597 18.2447C35.3761 18.2447 36.7676 19.6282 36.7676 21.335Z" fill="#FEA613"/>
<path d="M32.9324 21.335C32.9324 20.0476 33.7244 18.9445 34.85 18.48C34.4834 18.3286 34.0815 18.2447 33.6597 18.2447C31.9434 18.2447 30.552 19.6283 30.552 21.335C30.552 23.0419 31.9434 24.4253 33.6597 24.4253C34.0815 24.4253 34.4833 24.3414 34.85 24.1901C33.7244 23.7255 32.9324 22.6226 32.9324 21.335Z" fill="#FB8801"/>
<path d="M29.2199 6.52605C29.2199 10.1303 26.2963 13.0521 22.6901 13.0521C19.0836 13.0521 16.1602 10.1302 16.1602 6.52605C16.1603 2.92195 19.0836 0 22.6902 0C26.2964 0 29.2199 2.92195 29.2199 6.52605Z" fill="#FFDC48"/>
<path d="M25.798 6.52604C25.798 8.24167 24.4065 9.63186 22.6902 9.63186C20.9738 9.63186 19.5823 8.24167 19.5823 6.52604C19.5823 4.81065 20.9738 3.4201 22.6902 3.4201C24.4065 3.4201 25.798 4.81077 25.798 6.52604Z" fill="#FEA613"/>
<path d="M21.9627 6.52604C21.9627 5.23218 22.7547 4.12346 23.8804 3.65659C23.5138 3.50448 23.1118 3.4201 22.6902 3.4201C20.9738 3.4201 19.5823 4.81065 19.5823 6.52604C19.5823 8.24167 20.9738 9.63186 22.6902 9.63186C23.1118 9.63186 23.5138 9.54749 23.8804 9.3955C22.7547 8.92874 21.9627 7.82014 21.9627 6.52604Z" fill="#FB8801"/>
<path d="M14.4216 17.6605C14.4216 19.3759 13.0301 20.7665 11.3136 20.7665C9.59718 20.7665 8.20581 19.3759 8.20581 17.6605C8.20581 15.9449 9.59718 14.5543 11.3136 14.5543C13.0301 14.5543 14.4216 15.945 14.4216 17.6605Z" fill="#FEA613"/>
<path d="M10.5864 17.6605C10.5864 16.3664 11.3782 15.2577 12.5039 14.7907C12.1372 14.6387 11.7354 14.5543 11.3136 14.5543C9.59718 14.5543 8.20581 15.9449 8.20581 17.6605C8.20581 19.3759 9.59718 20.7665 11.3136 20.7665C11.7354 20.7665 12.1372 20.6822 12.5039 20.5301C11.3782 20.0632 10.5864 18.9544 10.5864 17.6605Z" fill="#FB8801"/>
<path d="M49.617 13.6221C49.617 15.3375 48.2255 16.7282 46.5092 16.7282C44.7927 16.7282 43.4014 15.3375 43.4014 13.6221C43.4014 11.9064 44.7929 10.5159 46.5092 10.5159C48.2255 10.5159 49.617 11.9065 49.617 13.6221Z" fill="#FFDC48"/>
<path d="M45.7819 13.6221C45.7819 12.328 46.5739 11.2193 47.6995 10.7524C47.3328 10.6003 46.9309 10.5159 46.5092 10.5159C44.7927 10.5159 43.4014 11.9064 43.4014 13.6221C43.4014 15.3375 44.7929 16.7282 46.5092 16.7282C46.9309 16.7282 47.3328 16.6438 47.6995 16.4917C46.5739 16.0249 45.7819 14.9161 45.7819 13.6221Z" fill="#FEA613"/>
<path d="M40.0169 28.2315H27.699C27.2136 28.2315 26.8201 27.8381 26.8201 27.3526C26.8201 26.8671 27.2136 26.4737 27.699 26.4737H40.0169C40.5023 26.4737 40.8958 26.8671 40.8958 27.3526C40.8958 27.8381 40.5023 28.2315 40.0169 28.2315Z" fill="#FD8087"/>
</g>
<defs>
<clipPath id="clip0_16_1103">
<rect width="60" height="60" fill="white"/>
</clipPath>
</defs>
</svg>
