<svg width="60" height="60" viewBox="0 0 60 60" fill="none" xmlns="http://www.w3.org/2000/svg">
<g clip-path="url(#clip0_16_1127)">
<path d="M28.4423 58.4727V38.8904H25.002L20.7463 35.6134L18.874 36.3348L17.9456 36.1223L11.3129 38.6937C9.3881 39.4857 6.81079 41.9782 6.81079 45.6768V58.4998C6.81079 59.3283 7.48251 60.0001 8.31103 60.0001H29.9694C29.1296 60 28.4423 59.3127 28.4423 58.4727Z" fill="#DD636E"/>
<path d="M10.7026 58.6204V44.0202C10.7026 40.9372 12.4933 38.6933 14.2043 37.5728L11.3129 38.6937C9.3881 39.4857 6.81079 41.9782 6.81079 45.6767V58.4997C6.81079 59.3283 7.48251 60.0001 8.31103 60.0001H11.613C11.0778 59.7708 10.7026 59.2396 10.7026 58.6204Z" fill="#DA4A54"/>
<path d="M33.2151 34.1888C32.8961 34.0655 32.6841 33.7584 32.6832 33.4145L32.6806 30.1956C31.3909 31.0395 29.8517 31.5321 28.1989 31.5321C26.3761 31.5321 24.7765 31.0268 23.472 30.1832L23.4721 33.4095C23.4721 34.0465 22.9039 34.1999 22.6617 34.2939L22.4827 34.3632L22.282 35.0216L20.4651 35.7217L20.4932 35.9013L25.0021 39.3734H28.4424V36.418C28.4424 35.5781 29.1297 35.2532 29.9695 35.2532L35.9287 35.248L33.2151 34.1888Z" fill="#FFCEBE"/>
<path d="M28.1509 31.5313C26.3483 31.5225 24.7649 31.0193 23.472 30.1832L23.4721 33.4095C23.4721 34.0465 22.9039 34.1999 22.6617 34.2939L22.4827 34.3632L22.282 35.0216L20.4651 35.7217L20.4932 35.9013L25.0021 39.3734H28.1509V31.5313Z" fill="#FFB1A0"/>
<path d="M39.4474 18.6406H39.0074L36.1699 19.5517V23.7776L36.4028 24.0199C38.5113 24.2671 40.2661 22.7277 40.2661 20.8442C40.2662 20.0296 39.9619 19.2433 39.4474 18.6406Z" fill="#FFCEBE"/>
<path d="M38.3918 18.8384L36.1702 19.5518V23.7777L36.403 24.0201C37.1265 24.1049 37.8082 23.9793 38.3918 23.7017V18.8384Z" fill="#FFB1A0"/>
<path d="M16.7127 18.6406H17.1528L19.9902 19.5517V23.7776L19.7574 24.0199C17.6488 24.2671 15.894 22.7277 15.894 20.8442C15.8939 20.0296 16.1983 19.2433 16.7127 18.6406Z" fill="#FFCEBE"/>
<path d="M18.1156 20.8443C18.1156 20.2256 18.2913 19.6237 18.6011 19.1057L17.1526 18.6406H16.7126C16.1981 19.2433 15.8938 20.0296 15.8938 20.8442C15.8938 22.7277 17.6484 24.2671 19.7571 24.0199L19.99 23.7776V23.7015C18.8728 23.1702 18.1156 22.0815 18.1156 20.8443Z" fill="#FFB1A0"/>
<path d="M35.0474 18.6294C31.5934 16.6912 28.0801 16.6167 28.0801 16.6167C28.0801 16.6167 24.5668 16.6912 21.1128 18.6294C20.6286 18.9012 20.1739 19.0816 19.7517 19.1853V23.8057C19.7517 28.0963 23.1136 32.0151 28.1989 32.0151C32.7257 32.0151 36.4085 28.3323 36.4085 23.8057V19.1853C35.9863 19.0816 35.5315 18.9012 35.0474 18.6294Z" fill="#FFDECF"/>
<path d="M24.1082 23.8057V17.3509C23.1664 17.6446 22.1374 18.0545 21.1128 18.6294C20.6286 18.901 20.1739 19.0816 19.7517 19.1853V23.8056C19.7517 28.0962 23.1136 32.015 28.1988 32.015C28.9256 32.015 29.6301 31.9189 30.3016 31.7409C26.5005 30.78 24.1082 27.4251 24.1082 23.8057Z" fill="#FFCEBE"/>
<path d="M22.8898 41.7791C23.1712 42.101 23.6577 42.1404 23.9873 41.8679L26.3321 39.9287C26.6764 39.6439 26.716 39.1303 26.4193 38.7962L22.4827 34.3632L17.9456 36.1222L22.8898 41.7791Z" fill="#FFE07D"/>
<path d="M51.662 34.8911H44.7301L44.0587 35.6003H37.2368L36.5392 34.8911H33.5658C33.085 35.163 32.7603 35.6589 32.7603 36.2242V58.6668C32.7603 59.2322 33.0851 59.7281 33.5659 60H51.6621C52.502 60 53.1892 59.3127 53.1892 58.4727V36.4181C53.1892 35.5781 52.5019 34.8911 51.662 34.8911Z" fill="#FBC481"/>
<path d="M33.2116 58.4727V36.4181C33.2116 35.5781 33.8989 34.8911 34.7387 34.8911H29.6071C28.7673 34.8911 28.0801 35.5782 28.0801 36.4181V58.4727C28.0801 59.3127 28.7674 60 29.6071 60H34.7387C33.8989 60 33.2116 59.3127 33.2116 58.4727Z" fill="#DD9973"/>
<path d="M36.5391 34.8909V44.4089C36.5391 44.9783 37.1713 45.3201 37.6478 45.0084L40.2423 43.3106C40.4805 43.1546 40.7886 43.1546 41.0269 43.3106L43.6214 45.0084C44.0979 45.3203 44.7301 44.9784 44.7301 44.4089V34.8909H36.5391Z" fill="#D6865F"/>
<path d="M40.6347 34.8909H36.5391V44.4089C36.5391 44.9783 37.1713 45.3201 37.6478 45.0084L40.2423 43.3106C40.3615 43.2326 40.498 43.1937 40.6347 43.1937V34.8909Z" fill="#B97359"/>
<path d="M37.7138 57.1349H31.8635C31.3634 57.1349 30.958 56.7294 30.958 56.2294C30.958 55.7292 31.3635 55.3239 31.8635 55.3239H37.7138C38.2139 55.3239 38.6193 55.7293 38.6193 56.2294C38.6193 56.7294 38.2138 57.1349 37.7138 57.1349Z" fill="#D6865F"/>
<path d="M37.7138 54.13H31.8635C31.3634 54.13 30.958 53.7246 30.958 53.2245C30.958 52.7244 31.3635 52.319 31.8635 52.319H37.7138C38.2139 52.319 38.6193 52.7245 38.6193 53.2245C38.6193 53.7246 38.2138 54.13 37.7138 54.13Z" fill="#D6865F"/>
<path d="M37.7138 51.1252H31.8635C31.3634 51.1252 30.958 50.7197 30.958 50.2197C30.958 49.7196 31.3635 49.3141 31.8635 49.3141H37.7138C38.2139 49.3141 38.6193 49.7196 38.6193 50.2197C38.6193 50.7197 38.2138 51.1252 37.7138 51.1252Z" fill="#D6865F"/>
<path d="M15.1843 60V46.7845C15.1843 46.2812 14.7788 45.8733 14.2788 45.8733C13.7786 45.8733 13.3733 46.2813 13.3733 46.7845V60H15.1843Z" fill="#DA4A54"/>
<path d="M39.5351 15.7064C39.5351 15.7064 35.7653 10.3477 28.0751 10.3477C20.3849 10.3477 16.6151 15.7064 16.6151 15.7064C15.5719 18.3393 17.5539 21.2295 21.1108 19.2334C24.5633 17.2961 28.0751 17.2215 28.0751 17.2215C28.0751 17.2215 31.5869 17.2961 35.0395 19.2334C38.5964 21.2293 40.5783 18.3393 39.5351 15.7064Z" fill="#FFE07D"/>
<path d="M22.0679 13.0302C22.0679 13.0302 22.7452 12.0683 24.1081 10.8569C19.0864 12.1945 16.6151 15.7064 16.6151 15.7064C15.5719 18.3392 17.5539 21.2294 21.1108 19.2334C21.9192 18.7797 22.7303 18.4292 23.4993 18.157C21.8606 17.3083 21.2444 15.1084 22.0679 13.0302Z" fill="#FFD064"/>
<path d="M25.1594 2.98639C20.2978 3.88393 16.6152 8.14451 16.6152 13.2658V15.7065C16.6152 15.7065 18.465 14.028 22.2109 13.0202C22.3714 8.71815 23.5171 5.02018 25.1594 2.98639Z" fill="#DD636E"/>
<path d="M30.991 2.98639C32.6332 5.02018 33.779 8.71815 33.9394 13.0202C37.6853 14.0279 39.5351 15.7064 39.5351 15.7064V13.2657C39.5351 8.14451 35.8525 3.88393 30.991 2.98639Z" fill="#DD636E"/>
<path d="M27.0693 3.17379H29.0812C29.4685 3.17379 29.8508 3.19559 30.2272 3.2366V1.8109C30.2272 0.814922 29.4122 0 28.4163 0H27.7342C26.7383 0 25.9233 0.814922 25.9233 1.8109V3.2366C26.2997 3.19547 26.682 3.17379 27.0693 3.17379Z" fill="#FFE07D"/>
<path d="M28.0751 1.8109C28.0751 1.07637 28.519 0.44168 29.1511 0.15832C28.926 0.0574219 28.6777 0 28.4161 0H27.734C26.738 0 25.9231 0.814922 25.9231 1.8109V3.2366C26.2995 3.19559 26.6818 3.17379 27.0691 3.17379H28.075V1.8109H28.0751Z" fill="#FFD064"/>
<path d="M27.0691 2.81171C26.4039 2.81171 25.7533 2.87464 25.1226 2.99335C23.3591 4.99585 22.1487 8.73624 22.0662 13.0586C23.6982 12.6064 25.699 12.2787 28.0751 12.2787C30.4513 12.2787 32.452 12.6064 34.0841 13.0586C34.0015 8.73612 32.791 4.99573 31.0275 2.99335C30.3968 2.87452 29.7463 2.81171 29.081 2.81171H27.0691Z" fill="#DA4A54"/>
<path d="M28.0619 2.81171H27.0691C26.4039 2.81171 25.7534 2.87464 25.1226 2.99335C23.3591 4.99585 22.1487 8.73624 22.0662 13.0586C23.0001 12.7997 24.0554 12.5821 25.2321 12.443C25.45 8.46718 26.5175 5.0071 28.0619 2.81171Z" fill="#DF4854"/>
<path d="M29.5743 9.36869H26.5859C26.0858 9.36869 25.6804 8.96323 25.6804 8.46319C25.6804 7.96303 26.0859 7.55768 26.5859 7.55768H29.5743C30.0745 7.55768 30.4798 7.96315 30.4798 8.46319C30.48 8.96323 30.0745 9.36869 29.5743 9.36869Z" fill="#DBEDFF"/>
</g>
<defs>
<clipPath id="clip0_16_1127">
<rect width="60" height="60" fill="white"/>
</clipPath>
</defs>
</svg>
