<svg width="33" height="32" viewBox="0 0 33 32" fill="none" xmlns="http://www.w3.org/2000/svg">
<path d="M24.0908 22.0001L29.0028 22.0001C29.5551 22.0001 30.0028 22.4478 30.0028 23.0001C30.0028 23.5523 29.5551 24.0001 29.0028 24.0001L24.0908 24.0001C21.8356 24.0001 19.7056 22.9043 18.3946 21.0688L17.2318 19.4411L18.4608 17.7206L20.0221 19.9063C20.9583 21.2173 22.4793 22.0001 24.0908 22.0001ZM2.29581 9.70706L6.29581 13.7071C6.68656 14.0978 7.31931 14.0978 7.70981 13.7071C8.10031 13.3163 8.10056 12.6836 7.70981 12.2931L5.41681 10.0001L7.91481 10.0001C9.52606 10.0001 11.0471 10.7828 11.9836 12.0938L13.5448 14.2796L14.7738 12.5591L13.6111 10.9313C12.3001 9.09581 10.1703 8.00006 7.91481 8.00006L5.41681 8.00006L7.70981 5.70706C8.10056 5.31631 8.10056 4.68356 7.70981 4.29306C7.51456 4.09781 7.25856 4.00006 7.00281 4.00006C6.74705 4.00006 6.49105 4.09781 6.2958 4.29306L2.29581 8.29306C1.90505 8.68356 1.90505 9.31656 2.29581 9.70706ZM2.29581 23.7071L6.29581 27.7071C6.68656 28.0978 7.31931 28.0978 7.70981 27.7071C8.10031 27.3163 8.10056 26.6836 7.70981 26.2931L5.41681 24.0001L7.91481 24.0001C10.1701 24.0001 12.3001 22.9043 13.6116 21.0683L20.0213 12.0943C20.9583 10.7828 22.4793 10.0001 24.0908 10.0001L29.0028 10.0001C29.5551 10.0001 30.0028 9.55231 30.0028 9.00006C30.0028 8.44781 29.5551 8.00006 29.0028 8.00006L24.0908 8.00006C21.8356 8.00006 19.7056 9.09581 18.3941 10.9318L11.9843 19.9058C11.0473 21.2173 9.52631 22.0001 7.91481 22.0001L5.41681 22.0001L7.70981 19.7071C8.10056 19.3163 8.10056 18.6836 7.70981 18.2931C7.51456 18.0978 7.25856 18.0001 7.00281 18.0001C6.74706 18.0001 6.49106 18.0978 6.29581 18.2931L2.29581 22.2931C1.90506 22.6836 1.90506 23.3166 2.29581 23.7071Z" fill="white"/>
</svg>
