<svg width="73" height="72" viewBox="0 0 73 72" fill="none" xmlns="http://www.w3.org/2000/svg">
<g clip-path="url(#clip0_25_36)">
<path d="M62.4725 10.5211C55.6867 3.73655 46.6397 0 36.9983 0C27.3777 0 18.3344 3.74766 11.5339 10.5526C4.73316 17.358 0.99155 26.4046 0.9983 36.0259C1.00505 45.6597 4.79588 54.7203 11.6724 61.5388C18.4829 68.2916 27.4666 72 36.9979 72C37.0931 72 37.1887 71.9997 37.284 71.9989C43.5121 71.9504 49.6391 70.2844 55.0029 67.1808L52.8902 63.5292C48.1577 66.2674 42.7499 67.7374 37.2513 67.7803C28.7463 67.8444 20.7173 64.5659 14.643 58.5429C8.57053 52.522 5.2231 44.5241 5.21705 36.0229C5.21114 27.529 8.51428 19.5427 14.5181 13.5347C20.5215 7.52723 28.5053 4.21875 36.9983 4.21875C54.5195 4.21875 68.7766 18.4732 68.7795 35.9942C68.7807 42.9393 66.5828 49.5361 62.4236 55.0716C62.0618 55.5531 61.5278 55.8419 60.92 55.8849C60.3058 55.9282 59.7025 55.7034 59.2668 55.2679L56.3972 52.3983L57.6713 51.1242L47.7276 41.1805L43.7501 45.1579C35.4694 44.0421 28.9561 37.5287 27.8402 29.248L31.8177 25.2706L21.8739 15.3269L16.382 20.8188C15.8439 30.1351 19.1315 39.6311 26.2492 46.7488C33.3669 53.8665 42.8629 57.1541 52.1792 56.616L53.4142 55.3812L56.2838 58.2508C57.5841 59.5512 59.3821 60.2227 61.2172 60.093C63.0361 59.9646 64.7051 59.058 65.7963 57.6056C70.5092 51.3336 72.9997 43.8602 72.9983 35.9935C72.9966 26.3521 69.2585 17.3059 62.4725 10.5211Z" fill="white"/>
</g>
<defs>
<clipPath id="clip0_25_36">
<rect width="72" height="72" fill="white" transform="translate(0.998291)"/>
</clipPath>
</defs>
</svg>
